<svg xmlns="http://www.w3.org/2000/svg" version="1.0" preserveAspectRatio="xMidYMid meet" viewBox="196.33 106.31 208.48 226.97">

<g transform="translate(0.000000,480.000000) scale(0.100000,-0.100000)" fill="#000000" stroke="none">
<path d="M2641 3725 c-95 -21 -183 -102 -166 -154 13 -41 120 -43 196 -3 85 45 220 143 216 156 -5 17 -170 17 -246 1z"/>
<path d="M2930 3626 c-63 -18 -100 -39 -139 -80 -43 -45 -36 -55 15 -21 61 41 137 59 192 45 46 -11 102 -44 102 -60 0 -4 -19 -3 -42 2 -89 20 -150 -3 -195 -75 -14 -23 -46 -62 -70 -86 -51 -50 -83 -108 -83 -148 0 -39 33 -89 72 -109 43 -23 185 -30 262 -14 143 30 224 200 181 380 -6 24 -5 23 23 -8 34 -38 60 -112 69 -193 5 -56 5 -56 -31 -77 -20 -12 -36 -28 -36 -37 0 -14 3 -14 25 1 32 21 55 12 55 -21 0 -58 -35 -82 -72 -48 -17 15 -18 15 -18 -1 0 -10 5 -26 10 -36 17 -31 -17 -40 -162 -41 l-133 -1 63 -20 64 -20 -31 -19 c-72 -44 -133 -69 -166 -69 -20 0 -77 18 -128 39 -51 22 -101 40 -112 41 -43 5 -47 -1 -15 -22 54 -38 59 -53 25 -88 -34 -35 -30 -44 13 -29 23 8 37 7 59 -4 49 -26 66 -52 60 -93 -7 -42 -20 -60 -59 -80 -26 -13 -33 -13 -76 6 -88 39 -141 113 -142 196 0 52 37 173 55 180 7 3 43 -4 80 -15 37 -12 84 -21 104 -20 34 0 32 2 -30 24 -85 29 -109 43 -109 60 0 24 13 24 72 -1 59 -25 146 -48 132 -35 -5 5 -31 17 -58 27 -137 51 -170 171 -91 329 19 39 35 73 35 78 0 15 -64 6 -138 -19 -258 -86 -437 -323 -336 -443 16 -19 35 -31 51 -31 34 0 26 -14 -32 -58 -73 -55 -110 -133 -109 -226 1 -108 50 -179 135 -192 32 -5 39 -10 33 -23 -57 -134 -35 -230 63 -276 42 -20 133 -33 133 -19 0 5 -23 29 -51 53 -58 50 -85 97 -75 135 15 61 90 55 184 -15 28 -22 52 -38 52 -35 0 18 -25 61 -54 94 -31 34 -34 41 -22 57 13 18 14 18 25 -3 16 -30 64 -36 173 -23 70 8 97 8 117 -2 24 -11 80 -82 81 -101 0 -5 -20 -6 -44 -3 -67 10 -120 -22 -176 -105 -57 -85 -53 -82 -102 -80 -41 1 -42 1 -23 -14 74 -59 196 -58 244 0 16 19 41 21 41 3 0 -22 63 -75 109 -92 58 -20 106 -19 180 4 72 22 137 59 171 96 14 15 21 26 15 23 -5 -2 -36 -16 -67 -32 -35 -16 -66 -25 -77 -21 -11 3 -34 27 -51 53 -28 42 -30 52 -24 97 10 80 43 154 87 198 l40 40 24 -27 c30 -35 29 -57 -3 -87 -32 -30 -88 -109 -77 -109 5 0 24 13 43 29 19 15 49 35 67 45 37 19 104 21 121 4 19 -19 14 -72 -8 -101 -33 -42 -27 -50 33 -42 131 18 238 94 283 201 8 19 15 64 15 99 1 79 -29 141 -79 167 -30 15 -31 17 -13 23 33 10 61 54 61 95 0 86 -86 122 -145 60 -24 -25 -37 -30 -75 -30 -71 0 -114 -36 -123 -103 -7 -53 -45 -98 -110 -130 -71 -34 -92 -34 -128 2 -43 43 -41 92 5 120 40 25 64 26 94 5 20 -14 22 -14 22 2 0 10 -11 30 -25 44 -22 23 -24 31 -18 79 6 49 9 54 40 68 31 12 38 12 59 -2 13 -8 30 -28 38 -44 18 -34 44 -43 91 -30 96 27 179 141 178 247 0 128 -84 222 -233 262 -25 6 -53 19 -63 27 -16 15 -16 17 5 27 30 15 34 62 9 103 -28 44 -114 99 -186 118 -70 18 -162 18 -225 1z m-470 -401 c20 -24 3 -57 -28 -53 -30 3 -41 30 -22 53 16 19 34 19 50 0z m678 -49 c-15 -29 -39 -45 -65 -46 -47 0 -35 47 20 81 29 17 33 18 44 3 9 -13 9 -22 1 -38z m300 8 c2 -11 -4 -26 -12 -33 -31 -26 -71 14 -45 45 17 21 53 14 57 -12z m109 -80 c-9 -9 -28 6 -21 18 4 6 10 6 17 -1 6 -6 8 -13 4 -17z m-1210 -50 c-9 -9 -28 6 -21 18 4 6 10 6 17 -1 6 -6 8 -13 4 -17z m1093 -64 c0 -5 -7 -10 -15 -10 -8 0 -15 5 -15 10 0 6 7 10 15 10 8 0 15 -4 15 -10z m-250 -125 c0 -80 -9 -96 -74 -126 -90 -41 -107 -44 -139 -19 -21 17 -25 25 -17 35 16 19 -14 33 -108 51 -55 10 -84 21 -101 39 -31 31 -20 43 22 26 147 -61 181 -62 261 -7 28 19 67 42 86 50 31 13 37 13 53 -1 9 -9 17 -30 17 -48z m-880 -80 c0 -8 -4 -15 -10 -15 -5 0 -10 7 -10 15 0 8 5 15 10 15 6 0 10 -7 10 -15z m588 -50 c-4 -20 1 -29 23 -42 35 -21 41 -36 29 -67 -20 -53 -88 -72 -131 -37 -23 19 -23 19 -6 55 9 20 17 49 17 64 0 34 16 52 48 52 21 0 24 -4 20 -25z m-418 -15 c0 -5 -7 -10 -15 -10 -8 0 -15 5 -15 10 0 6 7 10 15 10 8 0 15 -4 15 -10z m604 -66 c9 -8 16 -22 16 -29 0 -7 11 -27 25 -43 14 -17 25 -39 25 -50 0 -44 -82 -68 -127 -37 -31 22 -34 50 -7 86 19 26 21 35 12 47 -10 11 -8 17 7 28 24 18 30 18 49 -2z m405 2 c13 -16 -1 -56 -19 -56 -33 0 -55 42 -33 63 11 12 40 8 52 -7z m-1122 -27 c16 -16 5 -39 -18 -39 -12 0 -19 7 -19 18 0 31 17 41 37 21z m458 -76 c28 -12 64 -23 82 -23 25 0 42 -10 76 -45 43 -43 47 -45 102 -45 l58 0 -5 -58 c-8 -81 -31 -132 -61 -132 -33 0 -51 17 -92 84 -39 66 -46 102 -18 92 13 -5 11 0 -7 19 -39 41 -86 50 -194 37 -98 -12 -146 -5 -146 20 0 7 9 27 19 45 30 48 91 50 186 6z m762 -94 c16 -16 5 -39 -18 -39 -12 0 -19 7 -19 18 0 31 17 41 37 21z"/>
<path d="M3367 3633 c-34 -33 68 -199 140 -229 40 -17 95 -18 111 -2 18 18 14 67 -9 104 -43 70 -211 158 -242 127z"/>
<path d="M2284 3471 c-41 -25 -64 -59 -64 -94 0 -37 20 -43 67 -19 56 29 75 54 71 94 -4 41 -29 47 -74 19z"/>
<path d="M3708 3103 c-36 -41 -59 -131 -40 -159 11 -18 81 -44 119 -44 43 0 83 37 83 77 0 40 -31 94 -70 121 -40 26 -71 28 -92 5z"/>
<path d="M3781 2747 c-30 -37 -16 -118 22 -125 20 -4 37 33 37 82 0 49 -33 73 -59 43z"/>
<path d="M2874 1838 c-6 -10 -22 -220 -24 -307 0 -32 15 -49 57 -60 41 -12 92 5 131 42 58 53 71 141 27 175 -18 14 -25 30 -25 54 0 40 -21 73 -60 93 -35 18 -96 20 -106 3z m77 -111 c-8 -8 -11 -5 -11 9 0 27 14 41 18 19 2 -9 -1 -22 -7 -28z m38 -116 c11 -7 10 -11 -7 -20 -11 -6 -25 -11 -31 -11 -15 0 -14 27 2 33 18 8 21 8 36 -2z"/>
<path d="M2243 1813 c-7 -2 -20 -29 -28 -58 -14 -47 -20 -54 -46 -59 -16 -3 -42 -9 -58 -12 l-30 -5 6 55 c5 47 3 56 -10 56 -18 0 -39 -34 -57 -97 -7 -24 -21 -45 -31 -48 -32 -10 -35 -55 -4 -55 7 0 18 -14 24 -30 20 -59 71 -44 71 21 0 22 6 28 31 33 65 13 79 9 79 -24 0 -16 5 -40 12 -54 11 -26 44 -44 56 -31 8 8 33 132 31 155 -1 8 -1 42 0 74 0 72 -12 93 -46 79z"/>
<path d="M3521 1801 c-75 -22 -101 -42 -81 -65 8 -11 29 -16 62 -16 47 0 50 -1 44 -22 -15 -55 -18 -143 -4 -161 17 -23 43 -14 57 21 15 38 30 112 31 147 0 24 7 34 38 50 24 13 37 27 37 40 0 18 -7 20 -60 22 -34 1 -87 -6 -124 -16z"/>
<path d="M3998 1803 c-9 -10 -26 -46 -38 -80 -44 -123 -90 -122 -90 3 0 80 -13 100 -41 65 -42 -51 -35 -176 12 -223 30 -30 60 -31 104 -3 50 32 121 197 99 232 -15 24 -28 26 -46 6z"/>
<path d="M2553 1789 c-25 -9 -61 -55 -97 -124 -15 -27 -33 -57 -42 -66 -16 -18 -11 -61 10 -88 8 -11 16 -6 41 22 24 28 40 37 77 42 41 6 49 5 53 -11 16 -52 31 -69 60 -69 29 0 30 1 29 50 0 37 4 53 18 65 24 19 15 48 -18 56 -17 4 -27 17 -34 43 -18 69 -52 97 -97 80z m16 -130 c-31 -19 -40 -10 -23 23 17 33 17 33 27 10 8 -18 7 -26 -4 -33z"/>
<path d="M3231 1758 c-5 -13 -10 -74 -12 -137 -4 -101 -2 -115 14 -125 37 -22 67 54 67 169 0 48 -5 78 -16 93 -20 28 -42 28 -53 0z"/>
</g>
</svg>